<svg width="179" height="40" viewBox="0 0 179 40" fill="none" xmlns="http://www.w3.org/2000/svg">
<path d="M173.964 0.346113H174.86V2.87841H175.204V0.346113H176.101V0.032959H173.964V0.346113Z" fill="#EE8DAE"/>
<path d="M178.623 0.0245406L177.743 2.30069C177.634 1.97918 177.492 1.62423 177.341 1.22849L176.846 0.0161841H176.461V2.86999H176.788V0.733933C176.863 0.923695 176.939 1.12131 177.006 1.31108C177.132 1.63259 177.232 1.8966 177.308 2.09472C177.459 2.4826 177.559 2.72988 177.601 2.84492L177.61 2.87785H177.845L177.853 2.84492C178.079 2.28399 178.256 1.84693 178.373 1.54213C178.498 1.22062 178.599 0.964995 178.674 0.774741L178.665 1.05544C178.665 1.2865 178.657 1.50871 178.657 1.72305V2.86949L179 2.87785V0.0078125H178.623V0.0245406H178.623Z" fill="#EE8DAE"/>
<path d="M0 39.876V22.3918C0 14.2021 7.50764 7.5712 16.7335 7.6125C25.6911 7.65379 32.931 14.1116 32.931 22.0624V40.0004H29.6799V23.9674C29.6799 16.8582 23.848 11.0931 16.6251 11.0518C9.18438 11.0189 3.14271 16.9408 3.14271 24.2639V39.8765L0.000503013 39.9178V39.876H0Z" fill="#EE8DAE"/>
<path d="M54.8426 7.73608C45.818 7.73608 38.5112 14.9362 38.5112 23.8108C38.5112 32.6849 45.8265 39.8846 54.8426 39.8846C63.8586 39.8846 71.174 32.6844 71.174 23.8108C71.1745 14.9362 63.8671 7.73608 54.8426 7.73608ZM54.8426 36.5937C47.6701 36.5937 41.8547 30.8699 41.8547 23.8103C41.8547 16.7503 47.6701 11.0265 54.8426 11.0265C62.0151 11.0265 67.8305 16.7503 67.8305 23.8103C67.839 30.8704 62.024 36.5937 54.8426 36.5937Z" fill="#EE8DAE"/>
<path d="M113.834 7.73608C104.809 7.73608 97.5024 14.9362 97.5024 23.8108C97.5024 32.6928 104.818 39.8846 113.834 39.8846C122.85 39.8846 130.165 32.6844 130.165 23.8108C130.165 14.9279 122.85 7.73608 113.834 7.73608ZM113.834 36.5937C106.661 36.5937 100.845 30.8699 100.845 23.8103C100.845 16.7503 106.661 11.0265 113.834 11.0265C121.006 11.0265 126.822 16.7503 126.822 23.8103C126.822 30.8704 121.006 36.5937 113.834 36.5937Z" fill="#EE8DAE"/>
<path d="M90.631 31.5875C90.2709 34.3671 88.1342 36.5032 85.5449 36.5032C82.7043 36.5032 80.4003 33.9301 80.4003 30.7464V24.6597V11.1419H92.609V7.72764H80.4587L80.5511 0L77.2581 0.0413027V31.2827C77.2581 35.9427 80.9702 39.7198 85.5454 39.7198C90.0197 39.7198 93.6649 36.1069 93.8242 31.5875H90.631Z" fill="#EE8DAE"/>
<path d="M132.779 7.95874L142.298 23.8349L132.779 39.8845H136.751L144.259 27.1749L151.675 39.8845H155.504L146.178 23.8103L155.504 7.95874H151.633L144.142 20.5357L136.894 7.95874H132.779Z" fill="#EE8DAE"/>
<path d="M160.406 8.04907H159.77V39.6779H160.406V8.04907Z" fill="#EE8DAE"/>
</svg>
